<svg xmlns="http://www.w3.org/2000/svg" viewBox="0 0 1000 500">
  <path d="M 50 80 Q 100 60 180 80 L 220 100 Q 280 120 300 160 L 280 200 Q 250 240 200 250 L 150 240 Q 100 220 80 180 L 60 140 Q 40 100 50 80 Z" fill="rgba(0, 255, 255, 0.1)" stroke="rgba(0, 255, 255, 0.6)" stroke-width="2"/>
  <path d="M 180 260 Q 220 270 240 320 L 250 380 Q 240 440 200 460 L 160 450 Q 140 400 150 350 L 160 300 Q 170 270 180 260 Z" fill="rgba(168, 85, 247, 0.1)" stroke="rgba(168, 85, 247, 0.6)" stroke-width="2"/>
  <path d="M 420 80 Q 480 70 540 90 L 580 110 Q 600 140 590 170 L 570 200 Q 540 210 500 200 L 460 190 Q 420 170 410 140 L 400 110 Q 410 90 420 80 Z" fill="rgba(236, 72, 153, 0.1)" stroke="rgba(236, 72, 153, 0.6)" stroke-width="2"/>
  <path d="M 460 210 Q 520 220 560 260 L 580 320 Q 570 380 540 420 L 500 440 Q 460 430 440 380 L 430 320 Q 440 260 460 210 Z" fill="rgba(34, 197, 94, 0.1)" stroke="rgba(34, 197, 94, 0.5)" stroke-width="2"/>
  <path d="M 580 90 Q 680 80 780 100 L 850 130 Q 900 160 920 200 L 900 240 Q 850 260 780 250 L 680 240 Q 580 220 570 180 L 560 140 Q 570 110 580 90 Z" fill="rgba(249, 115, 22, 0.1)" stroke="rgba(249, 115, 22, 0.5)" stroke-width="2"/>
  <path d="M 740 340 Q 800 330 850 350 L 880 380 Q 870 410 840 420 L 780 410 Q 740 390 730 360 L 720 340 Q 730 330 740 340 Z" fill="rgba(139, 92, 246, 0.1)" stroke="rgba(139, 92, 246, 0.5)" stroke-width="2"/>
</svg>

